<svg xmlns="http://www.w3.org/2000/svg" xmlns:xlink="http://www.w3.org/1999/xlink" width="1889" zoomAndPan="magnify" viewBox="0 0 1417.5 1417.500002" height="1889" preserveAspectRatio="xMidYMid meet" version="1.0"><defs><filter x="0%" y="0%" width="100%" height="100%" id="1be1b29114"><feColorMatrix values="0 0 0 0 1 0 0 0 0 1 0 0 0 0 1 0 0 0 1 0" color-interpolation-filters="sRGB"/></filter><mask id="4afeefcf2b"><g filter="url(#1be1b29114)"><rect x="-141.75" width="1701" fill="#000000" y="-141.75" height="1701.000002" fill-opacity="0.5"/></g></mask><clipPath id="fdb4d70626"><path d="M 0.570312 0.421875 L 1212 0.421875 L 1212 1307 L 0.570312 1307 Z M 0.570312 0.421875 " clip-rule="nonzero"/></clipPath><clipPath id="480941ba62"><rect x="0" width="1215" y="0" height="1309"/></clipPath></defs><path fill="#ffffff" d="M 717.78125 1388.339844 C 1085.882812 1373.832031 1383.242188 1079.886719 1401.976562 722.015625 C 1357.683594 1014.289062 1104.617188 1245.1875 797.042969 1257.121094 C 456.203125 1269.890625 176.746094 1007.472656 173.335938 670.875 C 169.066406 334.324219 443.441406 51.453125 784.253906 38.664062 C 300.285156 14.832031 14.847656 366.699219 18.25 731.363281 C 22.507812 1108.011719 335.214844 1401.964844 717.78125 1388.339844 Z M 717.78125 1388.339844 " fill-opacity="1" fill-rule="evenodd"/><path fill="#ffffff" d="M 600.207031 1099.492188 C 915.445312 1226.449219 1124.230469 1027.015625 1204.3125 891.558594 C 1218.820312 867.695312 1231.574219 843.035156 1241.808594 817.46875 L 1060.3125 914.589844 C 1045.847656 1013.425781 924.855469 1181.265625 600.207031 1099.492188 Z M 600.207031 1099.492188 " fill-opacity="1" fill-rule="evenodd"/><path fill="#ffffff" d="M 970.84375 230.378906 C 904.40625 201.394531 830.25 186.953125 751.859375 188.613281 C 547.402344 192.882812 300.289062 392.265625 302.855469 662.371094 C 360.773438 466.402344 463.019531 330.085938 724.589844 305.375 C 887.347656 290.882812 1052.648438 415.273438 966.605469 520.929688 C 1055.210938 463.863281 1104.617188 414.421875 1101.195312 364.15625 C 1096.953125 313.03125 1040.710938 261.90625 970.84375 230.378906 Z M 970.84375 230.378906 " fill-opacity="1" fill-rule="evenodd"/><path fill="#ffffff" d="M 528.632812 670.875 C 706.726562 671.730469 1189.839844 610.390625 1250.339844 402.503906 C 1266.519531 347.09375 1252.867188 313.902344 1220.507812 235.515625 C 1295.480469 335.203125 1311.671875 451.898438 1263.089844 535.425781 C 1223.050781 605.296875 1139.558594 668.320312 1027.085938 695.609375 C 888.199219 728 706.722656 712.664062 528.632812 670.875 Z M 528.632812 670.875 " fill-opacity="1" fill-rule="evenodd"/><g mask="url(#4afeefcf2b)"><g transform="matrix(1, 0, 0, 1, 79, 55)"><g clip-path="url(#480941ba62)"><g clip-path="url(#fdb4d70626)"><path fill="#ffffff" d="M 691.574219 1130.605469 C 678.945312 1131.621094 666.152344 1132.109375 653.238281 1132.109375 C 465.054688 1132.109375 302.253906 1023.5625 223.960938 865.671875 C 223.796875 866.039062 382.863281 498.078125 747.289062 338.890625 C 559.554688 386.445312 433.300781 452.394531 348.386719 518.222656 L 348.425781 518.179688 L 347.898438 518.628906 C 326.820312 534.992188 308.304688 551.316406 292.0625 567.359375 C 255.835938 600.050781 209.378906 644.109375 175.390625 683.824219 C 174.742188 673.753906 174.457031 663.601562 174.457031 653.367188 C 174.457031 388.921875 388.832031 174.585938 653.277344 174.585938 C 782.050781 174.585938 898.921875 225.429688 985.015625 308.109375 C 825.785156 702.261719 372.183594 836.71875 372.183594 836.71875 C 806.617188 797.367188 1001.988281 609.917969 1089.664062 455.96875 C 1155.816406 339.785156 1160.648438 242.6875 1160.648438 242.6875 C 1041.015625 95.035156 858.152344 0.617188 653.277344 0.617188 C 292.792969 0.617188 0.570312 292.839844 0.570312 653.328125 C 0.570312 1013.816406 292.792969 1306.039062 653.277344 1306.039062 C 758.578125 1306.039062 858.070312 1281.105469 946.109375 1236.800781 C 1006.089844 1206.628906 1060.75 1167.480469 1108.386719 1121.144531 C 1258.070312 962.160156 1201.09375 781.976562 1201.09375 781.976562 C 1029.601562 1136.902344 691.574219 1130.605469 691.574219 1130.605469 " fill-opacity="1" fill-rule="evenodd"/></g></g></g></g></svg>