<svg xmlns="http://www.w3.org/2000/svg" xmlns:xlink="http://www.w3.org/1999/xlink" width="4913" zoomAndPan="magnify" viewBox="0 0 3684.75 1417.499962" height="1889" preserveAspectRatio="xMidYMid meet" version="1.0"><defs><filter x="0%" y="0%" width="100%" height="100%" id="1485637846"><feColorMatrix values="0 0 0 0 1 0 0 0 0 1 0 0 0 0 1 0 0 0 1 0" color-interpolation-filters="sRGB"/></filter><g/><clipPath id="44a8e6acf4"><path d="M 404.257812 218.5 L 1384.085938 218.5 L 1384.085938 1198.324219 L 404.257812 1198.324219 Z M 404.257812 218.5 " clip-rule="nonzero"/></clipPath><clipPath id="b4b95bf615"><path d="M 666.667969 218.5 L 1121.679688 218.5 C 1266.601562 218.5 1384.085938 335.980469 1384.085938 480.90625 L 1384.085938 935.917969 C 1384.085938 1080.839844 1266.601562 1198.324219 1121.679688 1198.324219 L 666.667969 1198.324219 C 521.742188 1198.324219 404.257812 1080.839844 404.257812 935.917969 L 404.257812 480.90625 C 404.257812 335.980469 521.742188 218.5 666.667969 218.5 Z M 666.667969 218.5 " clip-rule="nonzero"/></clipPath><linearGradient x1="-0.000000738672" gradientTransform="matrix(3.827447, 0, 0, 3.827447, 404.25972, 218.498243)" y1="0" x2="255.99999" gradientUnits="userSpaceOnUse" y2="0" id="cf4523493c"><stop stop-opacity="1" stop-color="rgb(0%, 27.099609%, 63.499451%)" offset="0"/><stop stop-opacity="1" stop-color="rgb(0.108337%, 26.992798%, 63.499451%)" offset="0.0078125"/><stop stop-opacity="1" stop-color="rgb(0.325012%, 26.780701%, 63.499451%)" offset="0.015625"/><stop stop-opacity="1" stop-color="rgb(0.541687%, 26.570129%, 63.499451%)" offset="0.0234375"/><stop stop-opacity="1" stop-color="rgb(0.759888%, 26.358032%, 63.499451%)" offset="0.03125"/><stop stop-opacity="1" stop-color="rgb(0.976562%, 26.145935%, 63.499451%)" offset="0.0390625"/><stop stop-opacity="1" stop-color="rgb(1.193237%, 25.933838%, 63.499451%)" offset="0.046875"/><stop stop-opacity="1" stop-color="rgb(1.411438%, 25.721741%, 63.499451%)" offset="0.0546875"/><stop stop-opacity="1" stop-color="rgb(1.628113%, 25.511169%, 63.499451%)" offset="0.0625"/><stop stop-opacity="1" stop-color="rgb(1.844788%, 25.299072%, 63.499451%)" offset="0.0703125"/><stop stop-opacity="1" stop-color="rgb(2.062988%, 25.086975%, 63.499451%)" offset="0.078125"/><stop stop-opacity="1" stop-color="rgb(2.279663%, 24.874878%, 63.499451%)" offset="0.0859375"/><stop stop-opacity="1" stop-color="rgb(2.496338%, 24.664307%, 63.499451%)" offset="0.09375"/><stop stop-opacity="1" stop-color="rgb(2.714539%, 24.452209%, 63.499451%)" offset="0.101563"/><stop stop-opacity="1" stop-color="rgb(2.931213%, 24.240112%, 63.499451%)" offset="0.109375"/><stop stop-opacity="1" stop-color="rgb(3.147888%, 24.028015%, 63.499451%)" offset="0.117188"/><stop stop-opacity="1" stop-color="rgb(3.366089%, 23.817444%, 63.499451%)" offset="0.125"/><stop stop-opacity="1" stop-color="rgb(3.582764%, 23.605347%, 63.499451%)" offset="0.132812"/><stop stop-opacity="1" stop-color="rgb(3.799438%, 23.39325%, 63.499451%)" offset="0.140625"/><stop stop-opacity="1" stop-color="rgb(4.017639%, 23.181152%, 63.499451%)" offset="0.148438"/><stop stop-opacity="1" stop-color="rgb(4.234314%, 22.970581%, 63.499451%)" offset="0.15625"/><stop stop-opacity="1" stop-color="rgb(4.450989%, 22.758484%, 63.499451%)" offset="0.164063"/><stop stop-opacity="1" stop-color="rgb(4.669189%, 22.546387%, 63.499451%)" offset="0.171875"/><stop stop-opacity="1" stop-color="rgb(4.885864%, 22.33429%, 63.499451%)" offset="0.179688"/><stop stop-opacity="1" stop-color="rgb(5.102539%, 22.123718%, 63.499451%)" offset="0.1875"/><stop stop-opacity="1" stop-color="rgb(5.32074%, 21.911621%, 63.499451%)" offset="0.195312"/><stop stop-opacity="1" stop-color="rgb(5.537415%, 21.699524%, 63.499451%)" offset="0.203125"/><stop stop-opacity="1" stop-color="rgb(5.754089%, 21.487427%, 63.499451%)" offset="0.210938"/><stop stop-opacity="1" stop-color="rgb(5.97229%, 21.276855%, 63.499451%)" offset="0.21875"/><stop stop-opacity="1" stop-color="rgb(6.188965%, 21.064758%, 63.499451%)" offset="0.226563"/><stop stop-opacity="1" stop-color="rgb(6.40564%, 20.852661%, 63.499451%)" offset="0.234375"/><stop stop-opacity="1" stop-color="rgb(6.62384%, 20.640564%, 63.499451%)" offset="0.242188"/><stop stop-opacity="1" stop-color="rgb(6.840515%, 20.429993%, 63.499451%)" offset="0.25"/><stop stop-opacity="1" stop-color="rgb(7.05719%, 20.217896%, 63.499451%)" offset="0.257812"/><stop stop-opacity="1" stop-color="rgb(7.275391%, 20.005798%, 63.499451%)" offset="0.265625"/><stop stop-opacity="1" stop-color="rgb(7.492065%, 19.793701%, 63.499451%)" offset="0.273438"/><stop stop-opacity="1" stop-color="rgb(7.70874%, 19.58313%, 63.499451%)" offset="0.28125"/><stop stop-opacity="1" stop-color="rgb(7.926941%, 19.371033%, 63.499451%)" offset="0.289063"/><stop stop-opacity="1" stop-color="rgb(8.143616%, 19.158936%, 63.499451%)" offset="0.296875"/><stop stop-opacity="1" stop-color="rgb(8.360291%, 18.946838%, 63.499451%)" offset="0.304688"/><stop stop-opacity="1" stop-color="rgb(8.578491%, 18.736267%, 63.499451%)" offset="0.3125"/><stop stop-opacity="1" stop-color="rgb(8.795166%, 18.52417%, 63.499451%)" offset="0.320312"/><stop stop-opacity="1" stop-color="rgb(9.011841%, 18.312073%, 63.499451%)" offset="0.328125"/><stop stop-opacity="1" stop-color="rgb(9.230042%, 18.099976%, 63.499451%)" offset="0.335938"/><stop stop-opacity="1" stop-color="rgb(9.446716%, 17.889404%, 63.499451%)" offset="0.34375"/><stop stop-opacity="1" stop-color="rgb(9.663391%, 17.677307%, 63.499451%)" offset="0.351563"/><stop stop-opacity="1" stop-color="rgb(9.881592%, 17.46521%, 63.499451%)" offset="0.359375"/><stop stop-opacity="1" stop-color="rgb(10.098267%, 17.253113%, 63.499451%)" offset="0.367188"/><stop stop-opacity="1" stop-color="rgb(10.314941%, 17.042542%, 63.499451%)" offset="0.375"/><stop stop-opacity="1" stop-color="rgb(10.533142%, 16.830444%, 63.499451%)" offset="0.382813"/><stop stop-opacity="1" stop-color="rgb(10.749817%, 16.618347%, 63.499451%)" offset="0.390625"/><stop stop-opacity="1" stop-color="rgb(10.966492%, 16.40625%, 63.499451%)" offset="0.398438"/><stop stop-opacity="1" stop-color="rgb(11.184692%, 16.195679%, 63.499451%)" offset="0.40625"/><stop stop-opacity="1" stop-color="rgb(11.401367%, 15.983582%, 63.499451%)" offset="0.414063"/><stop stop-opacity="1" stop-color="rgb(11.618042%, 15.771484%, 63.499451%)" offset="0.421875"/><stop stop-opacity="1" stop-color="rgb(11.836243%, 15.559387%, 63.499451%)" offset="0.429688"/><stop stop-opacity="1" stop-color="rgb(12.052917%, 15.348816%, 63.499451%)" offset="0.4375"/><stop stop-opacity="1" stop-color="rgb(12.269592%, 15.136719%, 63.499451%)" offset="0.445312"/><stop stop-opacity="1" stop-color="rgb(12.487793%, 14.924622%, 63.499451%)" offset="0.453125"/><stop stop-opacity="1" stop-color="rgb(12.704468%, 14.712524%, 63.499451%)" offset="0.460938"/><stop stop-opacity="1" stop-color="rgb(12.921143%, 14.501953%, 63.499451%)" offset="0.46875"/><stop stop-opacity="1" stop-color="rgb(13.139343%, 14.289856%, 63.499451%)" offset="0.476563"/><stop stop-opacity="1" stop-color="rgb(13.356018%, 14.077759%, 63.499451%)" offset="0.484375"/><stop stop-opacity="1" stop-color="rgb(13.572693%, 13.865662%, 63.499451%)" offset="0.492188"/><stop stop-opacity="1" stop-color="rgb(13.790894%, 13.65509%, 63.499451%)" offset="0.5"/><stop stop-opacity="1" stop-color="rgb(14.007568%, 13.442993%, 63.499451%)" offset="0.507812"/><stop stop-opacity="1" stop-color="rgb(14.224243%, 13.230896%, 63.499451%)" offset="0.515625"/><stop stop-opacity="1" stop-color="rgb(14.442444%, 13.018799%, 63.499451%)" offset="0.523438"/><stop stop-opacity="1" stop-color="rgb(14.659119%, 12.808228%, 63.499451%)" offset="0.53125"/><stop stop-opacity="1" stop-color="rgb(14.875793%, 12.59613%, 63.499451%)" offset="0.539062"/><stop stop-opacity="1" stop-color="rgb(15.093994%, 12.384033%, 63.499451%)" offset="0.546875"/><stop stop-opacity="1" stop-color="rgb(15.310669%, 12.171936%, 63.499451%)" offset="0.554688"/><stop stop-opacity="1" stop-color="rgb(15.527344%, 11.961365%, 63.499451%)" offset="0.5625"/><stop stop-opacity="1" stop-color="rgb(15.745544%, 11.749268%, 63.499451%)" offset="0.570313"/><stop stop-opacity="1" stop-color="rgb(15.962219%, 11.53717%, 63.499451%)" offset="0.578125"/><stop stop-opacity="1" stop-color="rgb(16.178894%, 11.325073%, 63.499451%)" offset="0.585938"/><stop stop-opacity="1" stop-color="rgb(16.397095%, 11.114502%, 63.499451%)" offset="0.59375"/><stop stop-opacity="1" stop-color="rgb(16.61377%, 10.902405%, 63.499451%)" offset="0.601563"/><stop stop-opacity="1" stop-color="rgb(16.830444%, 10.690308%, 63.499451%)" offset="0.609375"/><stop stop-opacity="1" stop-color="rgb(17.048645%, 10.47821%, 63.499451%)" offset="0.617188"/><stop stop-opacity="1" stop-color="rgb(17.26532%, 10.267639%, 63.499451%)" offset="0.625"/><stop stop-opacity="1" stop-color="rgb(17.481995%, 10.055542%, 63.499451%)" offset="0.632812"/><stop stop-opacity="1" stop-color="rgb(17.700195%, 9.843445%, 63.499451%)" offset="0.640625"/><stop stop-opacity="1" stop-color="rgb(17.91687%, 9.631348%, 63.499451%)" offset="0.648437"/><stop stop-opacity="1" stop-color="rgb(18.133545%, 9.420776%, 63.499451%)" offset="0.65625"/><stop stop-opacity="1" stop-color="rgb(18.351746%, 9.208679%, 63.499451%)" offset="0.664062"/><stop stop-opacity="1" stop-color="rgb(18.56842%, 8.996582%, 63.499451%)" offset="0.671875"/><stop stop-opacity="1" stop-color="rgb(18.785095%, 8.784485%, 63.499451%)" offset="0.679687"/><stop stop-opacity="1" stop-color="rgb(19.003296%, 8.573914%, 63.499451%)" offset="0.6875"/><stop stop-opacity="1" stop-color="rgb(19.219971%, 8.361816%, 63.499451%)" offset="0.695312"/><stop stop-opacity="1" stop-color="rgb(19.436646%, 8.149719%, 63.499451%)" offset="0.703125"/><stop stop-opacity="1" stop-color="rgb(19.654846%, 7.937622%, 63.499451%)" offset="0.710938"/><stop stop-opacity="1" stop-color="rgb(19.871521%, 7.727051%, 63.499451%)" offset="0.71875"/><stop stop-opacity="1" stop-color="rgb(20.088196%, 7.514954%, 63.499451%)" offset="0.726562"/><stop stop-opacity="1" stop-color="rgb(20.306396%, 7.302856%, 63.499451%)" offset="0.734375"/><stop stop-opacity="1" stop-color="rgb(20.523071%, 7.090759%, 63.499451%)" offset="0.742188"/><stop stop-opacity="1" stop-color="rgb(20.739746%, 6.880188%, 63.499451%)" offset="0.75"/><stop stop-opacity="1" stop-color="rgb(20.957947%, 6.668091%, 63.499451%)" offset="0.757812"/><stop stop-opacity="1" stop-color="rgb(21.174622%, 6.455994%, 63.499451%)" offset="0.765625"/><stop stop-opacity="1" stop-color="rgb(21.391296%, 6.243896%, 63.499451%)" offset="0.773438"/><stop stop-opacity="1" stop-color="rgb(21.609497%, 6.033325%, 63.499451%)" offset="0.78125"/><stop stop-opacity="1" stop-color="rgb(21.826172%, 5.821228%, 63.499451%)" offset="0.789062"/><stop stop-opacity="1" stop-color="rgb(22.042847%, 5.609131%, 63.499451%)" offset="0.796875"/><stop stop-opacity="1" stop-color="rgb(22.261047%, 5.397034%, 63.499451%)" offset="0.804688"/><stop stop-opacity="1" stop-color="rgb(22.477722%, 5.186462%, 63.499451%)" offset="0.8125"/><stop stop-opacity="1" stop-color="rgb(22.694397%, 4.974365%, 63.499451%)" offset="0.820313"/><stop stop-opacity="1" stop-color="rgb(22.912598%, 4.762268%, 63.499451%)" offset="0.828125"/><stop stop-opacity="1" stop-color="rgb(23.129272%, 4.550171%, 63.499451%)" offset="0.835938"/><stop stop-opacity="1" stop-color="rgb(23.345947%, 4.3396%, 63.499451%)" offset="0.84375"/><stop stop-opacity="1" stop-color="rgb(23.564148%, 4.127502%, 63.499451%)" offset="0.851563"/><stop stop-opacity="1" stop-color="rgb(23.780823%, 3.915405%, 63.499451%)" offset="0.859375"/><stop stop-opacity="1" stop-color="rgb(23.997498%, 3.703308%, 63.499451%)" offset="0.867188"/><stop stop-opacity="1" stop-color="rgb(24.215698%, 3.492737%, 63.499451%)" offset="0.875"/><stop stop-opacity="1" stop-color="rgb(24.432373%, 3.28064%, 63.499451%)" offset="0.882812"/><stop stop-opacity="1" stop-color="rgb(24.649048%, 3.068542%, 63.499451%)" offset="0.890625"/><stop stop-opacity="1" stop-color="rgb(24.867249%, 2.856445%, 63.499451%)" offset="0.898437"/><stop stop-opacity="1" stop-color="rgb(25.083923%, 2.645874%, 63.499451%)" offset="0.90625"/><stop stop-opacity="1" stop-color="rgb(25.300598%, 2.433777%, 63.499451%)" offset="0.914062"/><stop stop-opacity="1" stop-color="rgb(25.518799%, 2.22168%, 63.499451%)" offset="0.921875"/><stop stop-opacity="1" stop-color="rgb(25.735474%, 2.009583%, 63.499451%)" offset="0.929687"/><stop stop-opacity="1" stop-color="rgb(25.952148%, 1.799011%, 63.499451%)" offset="0.9375"/><stop stop-opacity="1" stop-color="rgb(26.170349%, 1.586914%, 63.499451%)" offset="0.945312"/><stop stop-opacity="1" stop-color="rgb(26.387024%, 1.374817%, 63.499451%)" offset="0.953125"/><stop stop-opacity="1" stop-color="rgb(26.603699%, 1.16272%, 63.499451%)" offset="0.960938"/><stop stop-opacity="1" stop-color="rgb(26.821899%, 0.952148%, 63.499451%)" offset="0.96875"/><stop stop-opacity="1" stop-color="rgb(27.038574%, 0.740051%, 63.499451%)" offset="0.976562"/><stop stop-opacity="1" stop-color="rgb(27.255249%, 0.527954%, 63.499451%)" offset="0.984375"/><stop stop-opacity="1" stop-color="rgb(27.47345%, 0.315857%, 63.499451%)" offset="0.992188"/><stop stop-opacity="1" stop-color="rgb(27.690125%, 0.105286%, 63.499451%)" offset="1"/></linearGradient><clipPath id="b683223c57"><path d="M 514 346 L 1260.941406 346 L 1260.941406 1076 L 514 1076 Z M 514 346 " clip-rule="nonzero"/></clipPath><mask id="25fade77eb"><g filter="url(#1485637846)"><rect x="-368.475" width="4421.7" fill="#ffffff" y="-141.749996" height="1700.999955" fill-opacity="0.5"/></g></mask><clipPath id="87727f6ffb"><path d="M 0.972656 0.273438 L 654 0.273438 L 654 703.15625 L 0.972656 703.15625 Z M 0.972656 0.273438 " clip-rule="nonzero"/></clipPath><clipPath id="3f9cb5e9f9"><rect x="0" width="656" y="0" height="706"/></clipPath></defs><g clip-path="url(#44a8e6acf4)"><g clip-path="url(#b4b95bf615)"><path fill="url(#cf4523493c)" d="M 404.257812 218.5 L 404.257812 1198.324219 L 1384.085938 1198.324219 L 1384.085938 218.5 Z M 404.257812 218.5 " fill-rule="nonzero"/></g></g><g clip-path="url(#b683223c57)"><path fill="#ffffff" d="M 892.066406 1074.996094 C 1090.527344 1067.175781 1250.847656 908.695312 1260.945312 715.746094 C 1237.066406 873.328125 1100.625 997.8125 934.796875 1004.25 C 751.035156 1011.136719 600.367188 869.652344 598.527344 688.175781 C 596.222656 506.722656 744.152344 354.214844 927.902344 347.320312 C 666.972656 334.46875 513.078125 524.179688 514.914062 720.789062 C 517.210938 923.855469 685.804688 1082.34375 892.066406 1074.996094 Z M 892.066406 1074.996094 " fill-opacity="1" fill-rule="evenodd"/></g><path fill="#ffffff" d="M 828.675781 919.265625 C 998.632812 987.714844 1111.203125 880.1875 1154.378906 807.15625 C 1162.199219 794.292969 1169.074219 780.996094 1174.59375 767.210938 L 1076.738281 819.574219 C 1068.941406 872.859375 1003.707031 963.351562 828.675781 919.265625 Z M 828.675781 919.265625 " fill-opacity="1" fill-rule="evenodd"/><path fill="#ffffff" d="M 1028.503906 450.683594 C 992.683594 435.054688 952.703125 427.269531 910.4375 428.164062 C 800.203125 430.464844 666.972656 537.964844 668.355469 683.589844 C 699.582031 577.933594 754.710938 504.4375 895.734375 491.117188 C 983.488281 483.304688 1072.609375 550.367188 1026.21875 607.332031 C 1073.988281 576.5625 1100.625 549.910156 1098.78125 522.808594 C 1096.496094 495.242188 1066.171875 467.679688 1028.503906 450.683594 Z M 1028.503906 450.683594 " fill-opacity="1" fill-rule="evenodd"/><path fill="#ffffff" d="M 790.085938 688.175781 C 886.105469 688.636719 1146.574219 655.566406 1179.191406 543.484375 C 1187.914062 513.609375 1180.554688 495.710938 1163.109375 453.449219 C 1203.53125 507.199219 1212.261719 570.113281 1186.066406 615.148438 C 1164.480469 652.820312 1119.464844 686.796875 1058.824219 701.511719 C 983.945312 718.972656 886.101562 710.707031 790.085938 688.175781 Z M 790.085938 688.175781 " fill-opacity="1" fill-rule="evenodd"/><g mask="url(#25fade77eb)"><g transform="matrix(1, 0, 0, 1, 547, 356)"><g clip-path="url(#3f9cb5e9f9)"><g clip-path="url(#87727f6ffb)"><path fill="#ffffff" d="M 373.511719 609.660156 C 366.703125 610.210938 359.808594 610.472656 352.847656 610.472656 C 251.390625 610.472656 163.621094 551.949219 121.410156 466.828125 C 121.320312 467.023438 207.078125 268.648438 403.550781 182.824219 C 302.335938 208.460938 234.269531 244.015625 188.492188 279.507812 L 188.511719 279.484375 L 188.226562 279.726562 C 176.867188 288.546875 166.882812 297.351562 158.125 305.996094 C 138.59375 323.621094 113.550781 347.375 95.222656 368.789062 C 94.875 363.359375 94.722656 357.886719 94.722656 352.367188 C 94.722656 209.796875 210.296875 94.242188 352.867188 94.242188 C 422.292969 94.242188 485.300781 121.652344 531.714844 166.230469 C 445.871094 378.726562 201.320312 451.21875 201.320312 451.21875 C 435.539062 430.003906 540.867188 328.941406 588.136719 245.945312 C 623.800781 183.304688 626.40625 130.957031 626.40625 130.957031 C 561.90625 51.351562 463.320312 0.449219 352.867188 0.449219 C 158.519531 0.449219 0.972656 157.996094 0.972656 352.347656 C 0.972656 546.695312 158.519531 704.242188 352.867188 704.242188 C 409.636719 704.242188 463.277344 690.800781 510.742188 666.914062 C 543.078125 650.648438 572.546875 629.542969 598.230469 604.558594 C 678.929688 518.847656 648.210938 421.707031 648.210938 421.707031 C 555.753906 613.054688 373.511719 609.660156 373.511719 609.660156 " fill-opacity="1" fill-rule="evenodd"/></g></g></g></g><g fill="#ffffff" fill-opacity="1"><g transform="translate(1535.586127, 1013.920857)"><g><path d="M 172.300781 9.753906 C 236.238281 9.753906 292.046875 -26.550781 308.84375 -79.105469 L 268.207031 -86.691406 C 254.660156 -50.933594 216.191406 -25.464844 173.925781 -25.464844 C 115.410156 -25.464844 73.148438 -65.5625 69.355469 -123.535156 L 316.96875 -123.535156 L 317.511719 -137.082031 C 317.511719 -223.234375 258.453125 -283.375 172.300781 -283.375 C 85.066406 -283.375 22.757812 -223.773438 22.757812 -137.625 C 22.757812 -50.933594 84.523438 9.753906 172.300781 9.753906 Z M 69.355469 -153.878906 C 74.230469 -209.6875 114.867188 -248.15625 171.21875 -248.15625 C 226.484375 -248.15625 267.121094 -208.605469 270.914062 -153.878906 Z M 69.355469 -153.878906 "/></g></g></g><g fill="#ffffff" fill-opacity="1"><g transform="translate(1849.83388, 1013.920857)"><g><path d="M 18.964844 0 L 266.039062 0 L 266.039062 -39.011719 L 88.316406 -39.011719 L 88.316406 -42.804688 L 260.621094 -249.242188 L 260.621094 -273.625 L 24.382812 -273.625 L 24.382812 -235.152344 L 193.976562 -235.152344 L 193.976562 -230.820312 L 18.964844 -24.382812 Z M 18.964844 0 "/></g></g></g><g fill="#ffffff" fill-opacity="1"><g transform="translate(2109.358609, 1013.920857)"><g><path d="M 118.117188 0 L 186.390625 0 L 293.671875 -273.625 L 244.363281 -273.625 L 153.878906 -38.46875 L 150.628906 -38.46875 L 60.144531 -273.625 L 10.835938 -273.625 Z M 118.117188 0 "/></g></g></g><g fill="#ffffff" fill-opacity="1"><g transform="translate(2388.930384, 1013.920857)"><g><path d="M 172.300781 9.753906 C 236.238281 9.753906 292.046875 -26.550781 308.84375 -79.105469 L 268.207031 -86.691406 C 254.660156 -50.933594 216.191406 -25.464844 173.925781 -25.464844 C 115.410156 -25.464844 73.148438 -65.5625 69.355469 -123.535156 L 316.96875 -123.535156 L 317.511719 -137.082031 C 317.511719 -223.234375 258.453125 -283.375 172.300781 -283.375 C 85.066406 -283.375 22.757812 -223.773438 22.757812 -137.625 C 22.757812 -50.933594 84.523438 9.753906 172.300781 9.753906 Z M 69.355469 -153.878906 C 74.230469 -209.6875 114.867188 -248.15625 171.21875 -248.15625 C 226.484375 -248.15625 267.121094 -208.605469 270.914062 -153.878906 Z M 69.355469 -153.878906 "/></g></g></g><g fill="#ffffff" fill-opacity="1"><g transform="translate(2703.178137, 1013.920857)"><g><path d="M 40.636719 0 L 86.152344 0 L 86.152344 -147.378906 C 86.152344 -202.101562 113.242188 -238.945312 154.964844 -238.945312 C 169.050781 -238.945312 184.761719 -235.152344 198.851562 -227.566406 L 198.851562 -270.914062 C 188.015625 -276.332031 174.46875 -279.042969 160.921875 -279.042969 C 127.328125 -279.042969 102.949219 -259.535156 89.945312 -227.566406 L 85.609375 -227.566406 L 85.609375 -273.625 L 40.636719 -273.625 Z M 40.636719 0 "/></g></g></g><g fill="#ffffff" fill-opacity="1"><g transform="translate(1535.586127, 606.710518)"><g><path d="M 85.101562 5.332031 C 128.011719 5.332031 155.652344 -14.789062 155.652344 -46.550781 C 155.652344 -84.128906 119.527344 -89.707031 88.496094 -94.554688 C 62.550781 -98.433594 38.792969 -102.554688 38.792969 -125.832031 C 38.792969 -144.984375 55.519531 -158.804688 82.917969 -158.804688 C 111.769531 -158.804688 129.953125 -143.53125 130.195312 -119.042969 L 151.046875 -119.042969 C 150.804688 -153.957031 124.132812 -176.261719 82.191406 -176.261719 C 41.703125 -176.261719 16.242188 -155.410156 16.242188 -124.375 C 16.242188 -87.039062 51.882812 -81.464844 82.191406 -76.855469 C 108.375 -72.734375 133.105469 -69.097656 133.105469 -45.339844 C 133.105469 -25.214844 114.679688 -12.363281 86.070312 -12.363281 C 54.550781 -12.363281 35.398438 -28.609375 35.398438 -55.035156 L 13.820312 -55.035156 C 13.820312 -18.667969 41.945312 5.332031 85.101562 5.332031 Z M 85.101562 5.332031 "/></g></g></g><g fill="#ffffff" fill-opacity="1"><g transform="translate(1693.635992, 606.710518)"><g><path d="M 77.097656 4.363281 C 105.707031 4.363281 130.679688 -11.878906 138.195312 -35.398438 L 120.011719 -38.792969 C 113.953125 -22.789062 96.738281 -11.394531 77.828125 -11.394531 C 51.640625 -11.394531 32.730469 -29.335938 31.035156 -55.277344 L 141.832031 -55.277344 L 142.074219 -61.339844 C 142.074219 -99.890625 115.648438 -126.800781 77.097656 -126.800781 C 38.066406 -126.800781 10.183594 -100.132812 10.183594 -61.582031 C 10.183594 -22.789062 37.820312 4.363281 77.097656 4.363281 Z M 31.035156 -68.855469 C 33.214844 -93.828125 51.398438 -111.042969 76.613281 -111.042969 C 101.34375 -111.042969 119.527344 -93.34375 121.226562 -68.855469 Z M 31.035156 -68.855469 "/></g></g></g><g fill="#ffffff" fill-opacity="1"><g transform="translate(1834.232061, 606.710518)"><g><path d="M 75.402344 4.363281 C 105.222656 4.363281 129.46875 -13.09375 134.800781 -39.035156 L 115.648438 -41.703125 C 111.285156 -24.972656 94.554688 -13.09375 75.402344 -13.09375 C 49.460938 -13.09375 30.546875 -33.214844 30.546875 -61.339844 C 30.546875 -89.222656 49.460938 -109.585938 75.402344 -109.585938 C 94.3125 -109.585938 111.285156 -96.980469 115.648438 -79.28125 L 134.800781 -81.949219 C 129.953125 -108.859375 105.464844 -126.800781 75.402344 -126.800781 C 37.09375 -126.800781 10.183594 -99.890625 10.183594 -61.339844 C 9.941406 -22.789062 37.335938 4.363281 75.402344 4.363281 Z M 75.402344 4.363281 "/></g></g></g><g fill="#ffffff" fill-opacity="1"><g transform="translate(1967.79813, 606.710518)"><g><path d="M 63.765625 4.363281 C 82.433594 4.363281 97.222656 -5.332031 105.707031 -21.578125 L 107.648438 -21.578125 L 107.648438 0 L 128.011719 0 L 128.011719 -122.4375 L 107.648438 -122.4375 L 107.648438 -51.15625 C 107.648438 -29.578125 91.160156 -13.578125 70.554688 -13.578125 C 49.460938 -13.578125 36.367188 -29.820312 36.367188 -52.371094 L 36.367188 -122.4375 L 15.757812 -122.4375 L 15.757812 -49.703125 C 15.757812 -18.425781 34.671875 4.363281 63.765625 4.363281 Z M 63.765625 4.363281 "/></g></g></g><g fill="#ffffff" fill-opacity="1"><g transform="translate(2102.576177, 606.710518)"><g><path d="M 18.183594 0 L 38.550781 0 L 38.550781 -65.945312 C 38.550781 -90.433594 50.671875 -106.921875 69.339844 -106.921875 C 75.644531 -106.921875 82.675781 -105.222656 88.980469 -101.828125 L 88.980469 -121.226562 C 84.128906 -123.648438 78.070312 -124.863281 72.007812 -124.863281 C 56.976562 -124.863281 46.066406 -116.132812 40.246094 -101.828125 L 38.308594 -101.828125 L 38.308594 -122.4375 L 18.183594 -122.4375 Z M 18.183594 0 "/></g></g></g><g fill="#ffffff" fill-opacity="1"><g transform="translate(2186.689536, 606.710518)"><g><path d="M 77.097656 4.363281 C 105.707031 4.363281 130.679688 -11.878906 138.195312 -35.398438 L 120.011719 -38.792969 C 113.953125 -22.789062 96.738281 -11.394531 77.828125 -11.394531 C 51.640625 -11.394531 32.730469 -29.335938 31.035156 -55.277344 L 141.832031 -55.277344 L 142.074219 -61.339844 C 142.074219 -99.890625 115.648438 -126.800781 77.097656 -126.800781 C 38.066406 -126.800781 10.183594 -100.132812 10.183594 -61.582031 C 10.183594 -22.789062 37.820312 4.363281 77.097656 4.363281 Z M 31.035156 -68.855469 C 33.214844 -93.828125 51.398438 -111.042969 76.613281 -111.042969 C 101.34375 -111.042969 119.527344 -93.34375 121.226562 -68.855469 Z M 31.035156 -68.855469 "/></g></g></g><g fill="#ffffff" fill-opacity="1"><g transform="translate(2327.285606, 606.710518)"><g/></g></g><g fill="#ffffff" fill-opacity="1"><g transform="translate(2376.006535, 606.710518)"><g><path d="M 56.25 0 L 89.222656 0 L 127.769531 -142.804688 L 129.953125 -142.804688 L 168.261719 0 L 201.234375 0 L 250.691406 -170.925781 L 228.386719 -170.925781 L 184.988281 -20.609375 L 183.050781 -20.609375 L 141.832031 -170.925781 L 115.890625 -170.925781 L 74.675781 -20.609375 L 72.734375 -20.609375 L 29.335938 -170.925781 L 6.789062 -170.925781 Z M 56.25 0 "/></g></g></g><g fill="#ffffff" fill-opacity="1"><g transform="translate(2622.053041, 606.710518)"><g><path d="M 75.644531 4.363281 C 114.195312 4.363281 141.105469 -22.304688 141.105469 -61.339844 C 141.105469 -100.375 114.195312 -126.800781 75.644531 -126.800781 C 36.851562 -126.800781 9.941406 -100.375 9.941406 -61.339844 C 9.941406 -22.304688 36.851562 4.363281 75.644531 4.363281 Z M 75.644531 -13.578125 C 49.21875 -13.578125 30.304688 -33.457031 30.304688 -61.339844 C 30.304688 -88.980469 49.21875 -108.859375 75.644531 -108.859375 C 101.828125 -108.859375 120.738281 -88.980469 120.738281 -61.339844 C 120.738281 -33.457031 101.828125 -13.578125 75.644531 -13.578125 Z M 75.644531 -13.578125 "/></g></g></g><g fill="#ffffff" fill-opacity="1"><g transform="translate(2761.679347, 606.710518)"><g><path d="M 18.183594 0 L 38.550781 0 L 38.550781 -71.523438 C 38.550781 -93.101562 55.035156 -108.859375 75.644531 -108.859375 C 96.738281 -108.859375 109.585938 -92.617188 109.585938 -70.066406 L 109.585938 0 L 130.195312 0 L 130.195312 -72.976562 C 130.195312 -104.011719 111.527344 -126.800781 82.191406 -126.800781 C 63.523438 -126.800781 48.730469 -117.101562 40.246094 -100.859375 L 38.550781 -100.859375 L 38.550781 -122.4375 L 18.183594 -122.4375 Z M 18.183594 0 "/></g></g></g><g fill="#ffffff" fill-opacity="1"><g transform="translate(2896.457325, 606.710518)"><g><path d="M 70.554688 4.363281 C 92.859375 4.363281 109.828125 -7.03125 118.558594 -24.972656 L 120.253906 -24.972656 L 120.253906 0 L 140.621094 0 L 140.621094 -178.199219 L 120.253906 -178.199219 L 120.253906 -97.707031 L 118.558594 -97.707031 C 109.828125 -115.648438 92.859375 -126.800781 70.308594 -126.800781 C 35.15625 -126.800781 9.941406 -99.890625 9.941406 -61.339844 C 9.941406 -22.546875 35.15625 4.363281 70.554688 4.363281 Z M 75.644531 -13.578125 C 49.460938 -13.578125 30.546875 -33.699219 30.546875 -61.339844 C 30.546875 -88.738281 49.460938 -108.859375 75.644531 -108.859375 C 101.828125 -108.859375 120.984375 -88.738281 120.984375 -61.339844 C 120.984375 -33.699219 101.828125 -13.578125 75.644531 -13.578125 Z M 75.644531 -13.578125 "/></g></g></g><g fill="#ffffff" fill-opacity="1"><g transform="translate(3043.841041, 606.710518)"><g><path d="M 77.097656 4.363281 C 105.707031 4.363281 130.679688 -11.878906 138.195312 -35.398438 L 120.011719 -38.792969 C 113.953125 -22.789062 96.738281 -11.394531 77.828125 -11.394531 C 51.640625 -11.394531 32.730469 -29.335938 31.035156 -55.277344 L 141.832031 -55.277344 L 142.074219 -61.339844 C 142.074219 -99.890625 115.648438 -126.800781 77.097656 -126.800781 C 38.066406 -126.800781 10.183594 -100.132812 10.183594 -61.582031 C 10.183594 -22.789062 37.820312 4.363281 77.097656 4.363281 Z M 31.035156 -68.855469 C 33.214844 -93.828125 51.398438 -111.042969 76.613281 -111.042969 C 101.34375 -111.042969 119.527344 -93.34375 121.226562 -68.855469 Z M 31.035156 -68.855469 "/></g></g></g><g fill="#ffffff" fill-opacity="1"><g transform="translate(3184.437041, 606.710518)"><g><path d="M 18.183594 0 L 38.550781 0 L 38.550781 -65.945312 C 38.550781 -90.433594 50.671875 -106.921875 69.339844 -106.921875 C 75.644531 -106.921875 82.675781 -105.222656 88.980469 -101.828125 L 88.980469 -121.226562 C 84.128906 -123.648438 78.070312 -124.863281 72.007812 -124.863281 C 56.976562 -124.863281 46.066406 -116.132812 40.246094 -101.828125 L 38.308594 -101.828125 L 38.308594 -122.4375 L 18.183594 -122.4375 Z M 18.183594 0 "/></g></g></g><g fill="#ffffff" fill-opacity="1"><g transform="translate(3268.550331, 606.710518)"><g><path d="M 64.976562 4.605469 C 95.769531 4.605469 117.34375 -9.941406 117.34375 -33.457031 C 117.34375 -62.792969 90.675781 -66.917969 67.402344 -70.308594 C 48.730469 -72.734375 31.519531 -74.917969 31.519531 -92.617188 C 31.519531 -104.496094 43.640625 -112.738281 61.582031 -112.738281 C 81.21875 -112.738281 94.554688 -102.3125 94.554688 -86.3125 L 113.222656 -86.3125 C 113.464844 -111.042969 91.886719 -127.042969 61.582031 -127.042969 C 32.003906 -127.042969 12.363281 -112.496094 12.363281 -90.675781 C 12.363281 -61.339844 38.550781 -57.703125 60.371094 -54.792969 C 79.28125 -52.125 96.980469 -50.914062 96.980469 -31.277344 C 96.980469 -18.183594 83.402344 -9.699219 65.21875 -9.699219 C 43.15625 -9.699219 28.367188 -21.820312 28.125 -39.035156 L 10.183594 -39.035156 C 10.183594 -13.09375 31.761719 4.605469 64.976562 4.605469 Z M 64.976562 4.605469 "/></g></g></g><path stroke-linecap="butt" transform="matrix(9.094139, 0, 0, 9.094139, 2923.844155, 701.522701)" fill="none" stroke-linejoin="miter" d="M 5.215368 8.290534 C 6.634981 8.290534 7.665435 7.291436 7.665435 5.913918 C 7.665435 4.494734 6.634981 3.505945 5.215368 3.505945 C 3.83785 3.505945 2.797087 4.494734 2.797087 5.913918 C 2.797087 7.291436 3.83785 8.290534 5.215368 8.290534 Z M 3.407026 33.999916 L 7.02414 33.999916 L 7.02414 12.254712 L 3.407026 12.254712 Z M 15.458917 33.999916 L 19.07603 33.999916 L 19.07603 15.051843 L 24.638507 15.051843 L 24.638507 12.254712 L 19.07603 12.254712 L 19.07603 8.069753 C 19.07603 5.788064 20.36936 4.75761 22.26232 4.75761 C 23.040208 4.75761 24.207254 4.925558 24.933168 5.146339 L 24.933168 2.086762 C 23.902714 1.781792 22.483101 1.57132 21.273531 1.57132 C 17.824795 1.57132 15.458917 3.895103 15.458917 8.027659 L 15.458917 12.254712 L 11.925563 12.254712 L 11.925563 15.051843 L 15.458917 15.051843 Z M 32.036816 43.694949 C 36.169372 43.694949 38.408967 40.204119 40.701394 34.346981 L 49.523612 12.254712 L 45.738121 12.254712 L 39.103095 29.215757 L 38.756031 29.215757 L 30.922173 12.254712 L 27.00009 12.254712 L 37.420607 33.999916 C 35.833046 37.837811 34.3606 40.634942 31.47971 40.634942 C 30.617204 40.634942 29.450157 40.414161 28.598389 40.11993 L 28.598389 43.127104 C 29.450157 43.474168 30.922173 43.694949 32.036816 43.694949 Z M 32.036816 43.694949 " stroke="#000202" stroke-width="1.130769" stroke-opacity="1" stroke-miterlimit="4"/><g fill="#ffffff" fill-opacity="1"><g transform="translate(2923.844155, 1010.723417)"><g><path d="M 47.394531 -233.835938 C 60.320312 -233.835938 69.71875 -242.84375 69.71875 -255.378906 C 69.71875 -268.304688 60.320312 -277.3125 47.394531 -277.3125 C 34.859375 -277.3125 25.460938 -268.304688 25.460938 -255.378906 C 25.460938 -242.84375 34.859375 -233.835938 47.394531 -233.835938 Z M 30.941406 0 L 63.84375 0 L 63.84375 -197.800781 L 30.941406 -197.800781 Z M 30.941406 0 "/></g></g></g><g fill="#ffffff" fill-opacity="1"><g transform="translate(3019.00679, 1010.723417)"><g><path d="M 45.433594 0 L 78.335938 0 L 78.335938 -172.339844 L 128.863281 -172.339844 L 128.863281 -197.800781 L 78.335938 -197.800781 L 78.335938 -235.792969 C 78.335938 -256.554688 90.085938 -265.953125 107.320312 -265.953125 C 114.371094 -265.953125 124.949219 -264.386719 131.605469 -262.429688 L 131.605469 -290.238281 C 122.207031 -292.980469 109.28125 -294.9375 98.3125 -294.9375 C 66.976562 -294.9375 45.433594 -273.789062 45.433594 -236.1875 L 45.433594 -197.800781 L 13.316406 -197.800781 L 13.316406 -172.339844 L 45.433594 -172.339844 Z M 45.433594 0 "/></g></g></g><g fill="#ffffff" fill-opacity="1"><g transform="translate(3161.163348, 1010.723417)"><g><path d="M 54.050781 88.128906 C 91.652344 88.128906 112.023438 56.402344 132.78125 3.132812 L 213.078125 -197.800781 L 178.609375 -197.800781 L 118.289062 -43.476562 L 115.15625 -43.476562 L 43.867188 -197.800781 L 8.226562 -197.800781 L 103.011719 0 C 88.519531 34.859375 75.203125 60.320312 48.960938 60.320312 C 41.125 60.320312 30.550781 58.359375 22.71875 55.621094 L 22.71875 83.039062 C 30.550781 86.171875 43.867188 88.128906 54.050781 88.128906 Z M 54.050781 88.128906 "/></g></g></g></svg>